<?xml version="1.0" encoding="UTF-8"?>
<svg width="32" height="32" viewBox="0 0 32 32" fill="none" xmlns="http://www.w3.org/2000/svg">
    <path fill-rule="evenodd" clip-rule="evenodd" d="M6 4C4.89543 4 4 4.89543 4 6V26C4 27.1046 4.89543 28 6 28H26C27.1046 28 28 27.1046 28 26V6C28 4.89543 27.1046 4 26 4H6ZM14.2929 20.7071L23.7071 11.2929C24.0976 10.9024 24.0976 10.2692 23.7071 9.87868C23.3166 9.48816 22.6834 9.48816 22.2929 9.87868L13.5858 18.5858L9.70711 14.7071C9.31658 14.3166 8.68342 14.3166 8.29289 14.7071C7.90237 15.0976 7.90237 15.7308 8.29289 16.1213L12.8787 20.7071C13.2692 21.0976 13.9024 21.0976 14.2929 20.7071Z" fill="#32ADE6"/>
</svg> 